<?xml version="1.0" encoding="utf-8"?>
<!-- Generator: Adobe Illustrator 17.0.0, SVG Export Plug-In . SVG Version: 6.00 Build 0)  -->
<!DOCTYPE svg PUBLIC "-//W3C//DTD SVG 1.1//EN" "http://www.w3.org/Graphics/SVG/1.1/DTD/svg11.dtd">
<svg version="1.1" id="Layer_1" xmlns="http://www.w3.org/2000/svg" xmlns:xlink="http://www.w3.org/1999/xlink" x="0px" y="0px"
	 width="1224px" height="792px" viewBox="0 0 1224 792" enable-background="new 0 0 1224 792" xml:space="preserve">
<path fill="none" stroke="#000000" d="M391.16,308.187c-0.64,0.457-1.455,0.784-2.445,0.982c-0.99,0.198-2.005,0.297-3.045,0.297
	c-1.26,0-2.455-0.195-3.585-0.585s-2.125-1.02-2.985-1.89c-0.86-0.87-1.545-2-2.055-3.39c-0.51-1.39-0.765-3.075-0.765-5.055
	c0-2.06,0.285-3.785,0.855-5.175c0.57-1.39,1.31-2.51,2.22-3.36c0.91-0.85,1.925-1.459,3.045-1.83c1.12-0.37,2.24-0.555,3.36-0.555
	c1.2,0,2.215,0.08,3.045,0.24c0.83,0.161,1.515,0.35,2.055,0.57l-0.81,3.48c-0.46-0.22-1.005-0.38-1.635-0.48
	s-1.395-0.15-2.295-0.15c-1.66,0-2.995,0.591-4.005,1.773c-1.01,1.183-1.515,3.017-1.515,5.501c0,1.082,0.12,2.069,0.36,2.961
	c0.24,0.892,0.605,1.654,1.095,2.285c0.49,0.631,1.1,1.123,1.83,1.473c0.729,0.351,1.575,0.526,2.535,0.526
	c0.9,0,1.66-0.09,2.28-0.27c0.62-0.18,1.16-0.41,1.62-0.69L391.16,308.187z"/>
<path fill="none" stroke="#000000" d="M393.2,294.917c0.8-0.36,1.75-0.645,2.85-0.855c1.1-0.21,2.25-0.315,3.45-0.315
	c1.04,0,1.91,0.125,2.61,0.375s1.255,0.605,1.665,1.065c0.41,0.46,0.7,1.01,0.87,1.65c0.17,0.64,0.255,1.36,0.255,2.16
	c0,0.88-0.03,1.765-0.09,2.655c-0.06,0.89-0.095,1.765-0.105,2.625c-0.01,0.86,0.015,1.695,0.075,2.505
	c0.06,0.81,0.21,1.575,0.45,2.295h-3.18l-0.63-2.07h-0.15c-0.4,0.62-0.955,1.155-1.665,1.605c-0.71,0.45-1.625,0.675-2.745,0.675
	c-0.7,0-1.33-0.105-1.89-0.315c-0.56-0.21-1.041-0.51-1.44-0.9c-0.4-0.39-0.71-0.85-0.93-1.38c-0.22-0.53-0.33-1.125-0.33-1.785
	c0-0.919,0.205-1.695,0.615-2.325c0.41-0.63,1-1.14,1.77-1.53c0.77-0.39,1.689-0.66,2.76-0.81c1.07-0.15,2.265-0.195,3.585-0.135
	c0.14-1.12,0.06-1.925-0.24-2.415c-0.3-0.49-0.971-0.735-2.01-0.735c-0.78,0-1.605,0.08-2.475,0.24
	c-0.87,0.161-1.585,0.371-2.145,0.63L393.2,294.917z M398.149,306.076c0.78,0,1.4-0.175,1.86-0.525
	c0.459-0.35,0.799-0.725,1.02-1.125v-1.95c-0.62-0.06-1.215-0.07-1.785-0.03c-0.57,0.041-1.075,0.13-1.515,0.27
	c-0.44,0.14-0.79,0.34-1.05,0.6c-0.26,0.26-0.39,0.59-0.39,0.99c0,0.561,0.165,0.996,0.495,1.305
	C397.115,305.922,397.569,306.076,398.149,306.076z"/>
<path fill="none" stroke="#000000" d="M406.609,294.046h2.07v-2.82l3.9-1.11v3.93h3.66v3.3h-3.66v5.76
	c0,1.04,0.105,1.785,0.315,2.235c0.21,0.45,0.604,0.675,1.185,0.675c0.4,0,0.745-0.04,1.035-0.12c0.29-0.08,0.615-0.2,0.975-0.36
	l0.69,3c-0.54,0.26-1.17,0.48-1.89,0.66c-0.72,0.18-1.451,0.27-2.19,0.27c-1.38,0-2.396-0.355-3.045-1.065s-0.975-1.875-0.975-3.495
	v-7.56h-2.07V294.046z"/>
<path fill="none" stroke="#000000" d="M429.109,308.116c-0.6,0.44-1.325,0.775-2.175,1.005c-0.85,0.229-1.725,0.345-2.625,0.345
	c-1.2,0-2.215-0.19-3.045-0.57c-0.83-0.38-1.505-0.915-2.025-1.605c-0.521-0.69-0.896-1.525-1.125-2.505
	c-0.23-0.98-0.345-2.06-0.345-3.24c0-2.54,0.57-4.495,1.71-5.865c1.14-1.37,2.8-2.055,4.98-2.055c1.1,0,1.984,0.09,2.655,0.27
	c0.67,0.18,1.275,0.41,1.815,0.69l-0.93,3.18c-0.46-0.22-0.915-0.39-1.365-0.51s-0.965-0.18-1.545-0.18
	c-1.08,0-1.9,0.355-2.46,1.065c-0.56,0.71-0.84,1.845-0.84,3.405c0,0.64,0.07,1.23,0.21,1.77c0.14,0.54,0.35,1.01,0.63,1.41
	c0.28,0.4,0.645,0.715,1.095,0.945c0.45,0.23,0.975,0.345,1.575,0.345c0.66,0,1.22-0.085,1.68-0.255
	c0.459-0.169,0.87-0.375,1.23-0.615L429.109,308.116z"/>
<path fill="none" stroke="#000000" d="M440.659,309.046v-8.52c0-1.22-0.17-2.1-0.51-2.64c-0.34-0.54-0.96-0.81-1.86-0.81
	c-0.66,0-1.265,0.225-1.815,0.675c-0.55,0.45-0.915,1.025-1.095,1.725v9.57h-3.9v-21h3.9v7.68h0.12c0.48-0.64,1.07-1.15,1.77-1.53
	c0.7-0.379,1.59-0.57,2.67-0.57c0.76,0,1.43,0.1,2.01,0.3c0.58,0.2,1.065,0.53,1.455,0.99c0.39,0.46,0.68,1.085,0.87,1.875
	c0.19,0.79,0.285,1.765,0.285,2.925v9.33H440.659z"/>
<path fill="none" stroke="#000000" d="M455.329,294.917c0.8-0.36,1.75-0.645,2.85-0.855c1.1-0.21,2.25-0.315,3.45-0.315
	c1.04,0,1.91,0.125,2.61,0.375s1.255,0.605,1.665,1.065c0.41,0.46,0.7,1.01,0.87,1.65c0.17,0.64,0.255,1.36,0.255,2.16
	c0,0.88-0.03,1.765-0.09,2.655c-0.06,0.89-0.095,1.765-0.105,2.625c-0.01,0.86,0.015,1.695,0.075,2.505
	c0.06,0.81,0.21,1.575,0.45,2.295h-3.18l-0.63-2.07h-0.15c-0.4,0.62-0.955,1.155-1.665,1.605c-0.71,0.45-1.625,0.675-2.745,0.675
	c-0.7,0-1.33-0.105-1.89-0.315c-0.56-0.21-1.041-0.51-1.44-0.9c-0.4-0.39-0.71-0.85-0.93-1.38c-0.22-0.53-0.33-1.125-0.33-1.785
	c0-0.919,0.205-1.695,0.615-2.325c0.41-0.63,1-1.14,1.77-1.53c0.77-0.39,1.689-0.66,2.76-0.81c1.07-0.15,2.265-0.195,3.585-0.135
	c0.14-1.12,0.06-1.925-0.24-2.415c-0.3-0.49-0.971-0.735-2.01-0.735c-0.78,0-1.605,0.08-2.475,0.24
	c-0.87,0.161-1.585,0.371-2.145,0.63L455.329,294.917z M460.279,306.076c0.78,0,1.4-0.175,1.86-0.525
	c0.459-0.35,0.799-0.725,1.02-1.125v-1.95c-0.62-0.06-1.215-0.07-1.785-0.03c-0.57,0.041-1.075,0.13-1.515,0.27
	c-0.44,0.14-0.79,0.34-1.05,0.6c-0.26,0.26-0.39,0.59-0.39,0.99c0,0.561,0.165,0.996,0.495,1.305
	C459.244,305.922,459.699,306.076,460.279,306.076z"/>
<path fill="none" stroke="#000000" d="M477.888,294.046h2.85l0.45,1.8h0.12c0.52-0.76,1.135-1.32,1.845-1.68
	c0.709-0.36,1.575-0.54,2.595-0.54c1.88,0,3.29,0.595,4.23,1.785s1.41,3.105,1.41,5.745c0,1.28-0.15,2.435-0.45,3.465
	c-0.3,1.03-0.745,1.905-1.335,2.625c-0.59,0.72-1.31,1.27-2.16,1.65c-0.851,0.379-1.826,0.57-2.925,0.57
	c-0.62,0-1.13-0.045-1.53-0.135c-0.4-0.09-0.8-0.235-1.2-0.435v6.15h-3.9V294.046z M484.578,296.926c-0.76,0-1.355,0.19-1.785,0.57
	c-0.431,0.38-0.765,0.95-1.005,1.71v6.24c0.28,0.22,0.585,0.395,0.915,0.525c0.33,0.13,0.765,0.195,1.305,0.195
	c1.12,0,1.96-0.395,2.52-1.185c0.56-0.79,0.84-2.095,0.84-3.915c0-1.32-0.22-2.34-0.66-3.06
	C486.268,297.287,485.558,296.926,484.578,296.926z"/>
<path fill="none" stroke="#000000" d="M493.368,301.546c0-2.54,0.62-4.495,1.86-5.865c1.24-1.37,2.98-2.055,5.22-2.055
	c1.2,0,2.24,0.19,3.12,0.57c0.88,0.38,1.61,0.915,2.19,1.605s1.015,1.525,1.305,2.505c0.29,0.98,0.435,2.061,0.435,3.24
	c0,2.54-0.615,4.495-1.845,5.865s-2.965,2.055-5.205,2.055c-1.2,0-2.24-0.19-3.12-0.57c-0.88-0.38-1.616-0.915-2.205-1.605
	c-0.59-0.69-1.03-1.525-1.32-2.505S493.368,302.727,493.368,301.546z M497.388,301.546c0,0.66,0.06,1.271,0.18,1.83
	c0.12,0.56,0.3,1.05,0.54,1.47c0.24,0.42,0.555,0.746,0.945,0.975c0.39,0.23,0.855,0.345,1.395,0.345c1.02,0,1.78-0.37,2.28-1.11
	c0.5-0.739,0.75-1.91,0.75-3.51c0-1.38-0.23-2.495-0.69-3.345c-0.46-0.85-1.24-1.275-2.34-1.275c-0.96,0-1.71,0.36-2.25,1.08
	C497.658,298.727,497.388,299.907,497.388,301.546z"/>
<path fill="none" stroke="#000000" d="M515.147,302.836h-1.05v6.21h-3.9v-21h3.9v12.39l0.899-0.42l3.42-5.97h4.29l-3.6,5.7
	l-1.53,1.14l1.65,1.17l4.05,6.99h-4.47L515.147,302.836z"/>
<path fill="none" stroke="#000000" d="M536.567,307.756c-0.6,0.48-1.415,0.885-2.445,1.215c-1.03,0.33-2.125,0.495-3.284,0.495
	c-2.421,0-4.19-0.705-5.311-2.115c-1.12-1.41-1.68-3.345-1.68-5.805c0-2.64,0.63-4.62,1.89-5.94s3.03-1.98,5.311-1.98
	c0.76,0,1.5,0.1,2.22,0.3c0.72,0.2,1.359,0.53,1.92,0.99c0.56,0.46,1.01,1.08,1.35,1.86s0.511,1.75,0.511,2.91
	c0,0.42-0.025,0.87-0.075,1.35c-0.051,0.48-0.125,0.98-0.226,1.5h-9c0.061,1.26,0.385,2.21,0.976,2.85
	c0.59,0.641,1.545,0.96,2.865,0.96c0.819,0,1.555-0.125,2.204-0.375c0.65-0.25,1.146-0.505,1.485-0.765L536.567,307.756z
	 M530.987,296.747c-1.02,0-1.775,0.305-2.265,0.915c-0.49,0.61-0.785,1.425-0.885,2.445h5.579c0.08-1.08-0.085-1.91-0.494-2.49
	C532.513,297.037,531.867,296.747,530.987,296.747z"/>
<path fill="none" stroke="#000000" d="M548.328,309.046v-8.16c0-1.38-0.131-2.359-0.391-2.94c-0.26-0.58-0.8-0.87-1.62-0.87
	c-0.68,0-1.229,0.186-1.649,0.555c-0.42,0.37-0.74,0.845-0.96,1.425v9.99h-3.9v-15h3.03l0.45,1.98h0.119
	c0.46-0.64,1.045-1.2,1.756-1.68c0.709-0.48,1.624-0.72,2.744-0.72c0.96,0,1.745,0.195,2.355,0.585
	c0.609,0.39,1.085,1.045,1.425,1.965c0.46-0.78,1.05-1.399,1.771-1.86c0.72-0.46,1.59-0.69,2.609-0.69c0.84,0,1.555,0.1,2.146,0.3
	c0.59,0.2,1.069,0.545,1.439,1.035c0.37,0.49,0.646,1.145,0.825,1.965c0.18,0.82,0.271,1.86,0.271,3.12v9h-3.9v-8.43
	c0-1.18-0.125-2.064-0.375-2.655c-0.25-0.59-0.806-0.885-1.665-0.885c-0.7,0-1.255,0.19-1.665,0.57s-0.715,0.9-0.915,1.56v9.84
	H548.328z"/>
<path fill="none" stroke="#000000" d="M563.237,301.546c0-2.54,0.619-4.495,1.859-5.865c1.24-1.37,2.98-2.055,5.221-2.055
	c1.199,0,2.239,0.19,3.12,0.57c0.88,0.38,1.609,0.915,2.189,1.605s1.015,1.525,1.305,2.505c0.29,0.98,0.436,2.061,0.436,3.24
	c0,2.54-0.615,4.495-1.845,5.865c-1.23,1.37-2.966,2.055-5.205,2.055c-1.2,0-2.24-0.19-3.12-0.57
	c-0.881-0.38-1.615-0.915-2.205-1.605s-1.03-1.525-1.32-2.505S563.237,302.727,563.237,301.546z M567.257,301.546
	c0,0.66,0.061,1.271,0.181,1.83c0.119,0.56,0.3,1.05,0.54,1.47c0.239,0.42,0.555,0.746,0.944,0.975
	c0.391,0.23,0.855,0.345,1.396,0.345c1.02,0,1.779-0.37,2.279-1.11c0.5-0.739,0.75-1.91,0.75-3.51c0-1.38-0.229-2.495-0.689-3.345
	c-0.461-0.85-1.24-1.275-2.34-1.275c-0.96,0-1.71,0.36-2.25,1.08C567.527,298.727,567.257,299.907,567.257,301.546z"/>
<path fill="none" stroke="#000000" d="M589.246,309.046v-8.52c0-1.22-0.175-2.1-0.524-2.64c-0.351-0.54-0.945-0.81-1.785-0.81
	c-0.74,0-1.365,0.215-1.875,0.645c-0.51,0.431-0.875,0.965-1.095,1.605v9.72h-3.9v-15h3.09l0.45,1.98h0.12
	c0.46-0.64,1.069-1.2,1.83-1.68c0.76-0.48,1.74-0.72,2.939-0.72c0.74,0,1.4,0.1,1.98,0.3c0.58,0.2,1.069,0.53,1.47,0.99
	s0.7,1.085,0.9,1.875c0.199,0.79,0.3,1.765,0.3,2.925v9.33H589.246z"/>
<path fill="none" stroke="#000000" d="M604.006,288.046h3.9v7.2h0.12c0.42-0.48,0.96-0.86,1.619-1.14
	c0.66-0.28,1.391-0.42,2.19-0.42c1.8,0,3.175,0.615,4.125,1.845c0.949,1.23,1.425,3.105,1.425,5.625c0,2.7-0.665,4.75-1.995,6.15
	c-1.33,1.4-3.155,2.1-5.475,2.1c-1.28,0-2.45-0.105-3.51-0.315c-1.061-0.21-1.86-0.445-2.4-0.705V288.046z M610.696,296.986
	c-0.721,0-1.306,0.185-1.756,0.555c-0.449,0.37-0.795,0.905-1.034,1.605v6.54c0.319,0.16,0.664,0.27,1.034,0.33
	c0.37,0.06,0.766,0.09,1.186,0.09c1.06,0,1.864-0.385,2.415-1.155c0.55-0.77,0.825-1.995,0.825-3.675
	C613.366,298.417,612.476,296.986,610.696,296.986z"/>
<path fill="none" stroke="#000000" d="M625.186,302.477l0.54,2.34h0.18l0.391-2.37l2.279-8.4h4.021l-4.561,13.53
	c-0.38,1.121-0.745,2.145-1.095,3.075s-0.734,1.735-1.155,2.415c-0.42,0.68-0.885,1.205-1.395,1.575
	c-0.51,0.37-1.115,0.555-1.815,0.555c-1.04,0-1.87-0.17-2.489-0.51l0.72-3.12c0.3,0.12,0.6,0.18,0.9,0.18
	c0.459,0,0.904-0.195,1.335-0.585c0.43-0.39,0.754-1.095,0.975-2.115l-6.27-15h4.68L625.186,302.477z"/>
<path fill="none" stroke="#000000" d="M649.756,309.046v-8.52c0-1.22-0.175-2.1-0.524-2.64c-0.351-0.54-0.945-0.81-1.785-0.81
	c-0.74,0-1.365,0.215-1.875,0.645c-0.51,0.431-0.875,0.965-1.095,1.605v9.72h-3.9v-15h3.09l0.45,1.98h0.12
	c0.46-0.64,1.069-1.2,1.83-1.68c0.76-0.48,1.74-0.72,2.939-0.72c0.74,0,1.4,0.1,1.98,0.3c0.58,0.2,1.069,0.53,1.47,0.99
	s0.7,1.085,0.9,1.875c0.199,0.79,0.3,1.765,0.3,2.925v9.33H649.756z"/>
<path fill="none" stroke="#000000" d="M660.676,294.046v8.52c0,1.22,0.145,2.1,0.435,2.64s0.855,0.81,1.695,0.81
	c0.74,0,1.354-0.22,1.845-0.66s0.855-0.98,1.096-1.62v-9.69h3.899v10.44c0,0.82,0.04,1.625,0.12,2.415
	c0.08,0.791,0.2,1.505,0.36,2.145h-2.94l-0.689-2.22h-0.12c-0.461,0.761-1.101,1.391-1.92,1.89c-0.82,0.5-1.79,0.75-2.91,0.75
	c-0.761,0-1.44-0.1-2.04-0.3s-1.101-0.53-1.5-0.99c-0.4-0.46-0.705-1.08-0.915-1.86s-0.315-1.76-0.315-2.94v-9.33H660.676z"/>
<path fill="none" stroke="#000000" d="M681.586,309.046v-8.16c0-1.38-0.131-2.359-0.391-2.94c-0.26-0.58-0.8-0.87-1.62-0.87
	c-0.68,0-1.229,0.186-1.649,0.555c-0.42,0.37-0.74,0.845-0.96,1.425v9.99h-3.9v-15h3.03l0.45,1.98h0.119
	c0.46-0.64,1.045-1.2,1.756-1.68c0.709-0.48,1.624-0.72,2.744-0.72c0.96,0,1.745,0.195,2.355,0.585
	c0.609,0.39,1.085,1.045,1.425,1.965c0.46-0.78,1.05-1.399,1.771-1.86c0.72-0.46,1.59-0.69,2.609-0.69c0.84,0,1.555,0.1,2.146,0.3
	c0.59,0.2,1.069,0.545,1.439,1.035c0.37,0.49,0.646,1.145,0.825,1.965c0.18,0.82,0.271,1.86,0.271,3.12v9h-3.9v-8.43
	c0-1.18-0.125-2.064-0.375-2.655c-0.25-0.59-0.806-0.885-1.665-0.885c-0.7,0-1.255,0.19-1.665,0.57s-0.715,0.9-0.915,1.56v9.84
	H681.586z"/>
<path fill="none" stroke="#000000" d="M697.215,288.046h3.9v7.2h0.12c0.42-0.48,0.96-0.86,1.619-1.14
	c0.66-0.28,1.391-0.42,2.19-0.42c1.8,0,3.175,0.615,4.125,1.845c0.949,1.23,1.425,3.105,1.425,5.625c0,2.7-0.665,4.75-1.995,6.15
	c-1.33,1.4-3.155,2.1-5.475,2.1c-1.28,0-2.45-0.105-3.51-0.315c-1.061-0.21-1.86-0.445-2.4-0.705V288.046z M703.905,296.986
	c-0.721,0-1.306,0.185-1.756,0.555c-0.449,0.37-0.795,0.905-1.034,1.605v6.54c0.319,0.16,0.664,0.27,1.034,0.33
	c0.37,0.06,0.766,0.09,1.186,0.09c1.06,0,1.864-0.385,2.415-1.155c0.55-0.77,0.825-1.995,0.825-3.675
	C706.575,298.417,705.685,296.986,703.905,296.986z"/>
<path fill="none" stroke="#000000" d="M725.295,307.756c-0.6,0.48-1.415,0.885-2.445,1.215c-1.03,0.33-2.125,0.495-3.284,0.495
	c-2.421,0-4.19-0.705-5.311-2.115c-1.12-1.41-1.68-3.345-1.68-5.805c0-2.64,0.63-4.62,1.89-5.94s3.03-1.98,5.311-1.98
	c0.76,0,1.5,0.1,2.22,0.3c0.72,0.2,1.359,0.53,1.92,0.99c0.56,0.46,1.01,1.08,1.35,1.86s0.511,1.75,0.511,2.91
	c0,0.42-0.025,0.87-0.075,1.35c-0.051,0.48-0.125,0.98-0.226,1.5h-9c0.061,1.26,0.385,2.21,0.976,2.85
	c0.59,0.641,1.545,0.96,2.865,0.96c0.819,0,1.555-0.125,2.204-0.375c0.65-0.25,1.146-0.505,1.485-0.765L725.295,307.756z
	 M719.715,296.747c-1.02,0-1.775,0.305-2.265,0.915c-0.49,0.61-0.785,1.425-0.885,2.445h5.579c0.08-1.08-0.085-1.91-0.494-2.49
	C721.24,297.037,720.595,296.747,719.715,296.747z"/>
<path fill="none" stroke="#000000" d="M736.815,297.707c-0.62-0.22-1.181-0.33-1.681-0.33c-0.7,0-1.285,0.185-1.755,0.555
	c-0.47,0.371-0.785,0.845-0.944,1.425v9.69h-3.9v-15h3.03l0.45,1.98h0.119c0.34-0.74,0.8-1.31,1.381-1.71
	c0.579-0.4,1.26-0.6,2.04-0.6c0.52,0,1.109,0.11,1.77,0.33L736.815,297.707z"/>
<path fill="none" stroke="#000000" d="M745.936,301.546c0-2.54,0.619-4.495,1.859-5.865c1.24-1.37,2.98-2.055,5.221-2.055
	c1.199,0,2.239,0.19,3.12,0.57c0.88,0.38,1.609,0.915,2.189,1.605s1.015,1.525,1.305,2.505c0.29,0.98,0.436,2.061,0.436,3.24
	c0,2.54-0.615,4.495-1.845,5.865c-1.23,1.37-2.966,2.055-5.205,2.055c-1.2,0-2.24-0.19-3.12-0.57
	c-0.881-0.38-1.615-0.915-2.205-1.605s-1.03-1.525-1.32-2.505S745.936,302.727,745.936,301.546z M749.955,301.546
	c0,0.66,0.061,1.271,0.181,1.83c0.119,0.56,0.3,1.05,0.54,1.47c0.239,0.42,0.555,0.746,0.944,0.975
	c0.391,0.23,0.855,0.345,1.396,0.345c1.02,0,1.779-0.37,2.279-1.11c0.5-0.739,0.75-1.91,0.75-3.51c0-1.38-0.229-2.495-0.689-3.345
	c-0.461-0.85-1.24-1.275-2.34-1.275c-0.96,0-1.71,0.36-2.25,1.08C750.226,298.727,749.955,299.907,749.955,301.546z"/>
<path fill="none" stroke="#000000" d="M771.045,297.707c-0.62-0.22-1.181-0.33-1.681-0.33c-0.7,0-1.285,0.185-1.755,0.555
	c-0.47,0.371-0.785,0.845-0.944,1.425v9.69h-3.9v-15h3.03l0.45,1.98h0.119c0.34-0.74,0.8-1.31,1.381-1.71
	c0.579-0.4,1.26-0.6,2.04-0.6c0.52,0,1.109,0.11,1.77,0.33L771.045,297.707z"/>
<path fill="none" stroke="#000000" d="M790.064,309.046v-8.52c0-1.22-0.175-2.1-0.524-2.64c-0.351-0.54-0.945-0.81-1.785-0.81
	c-0.74,0-1.365,0.215-1.875,0.645c-0.51,0.431-0.875,0.965-1.095,1.605v9.72h-3.9v-15h3.09l0.45,1.98h0.12
	c0.46-0.64,1.069-1.2,1.83-1.68c0.76-0.48,1.74-0.72,2.939-0.72c0.74,0,1.4,0.1,1.98,0.3c0.58,0.2,1.069,0.53,1.47,0.99
	s0.7,1.085,0.9,1.875c0.199,0.79,0.3,1.765,0.3,2.925v9.33H790.064z"/>
<path fill="none" stroke="#000000" d="M797.145,294.917c0.8-0.36,1.75-0.645,2.85-0.855s2.25-0.315,3.45-0.315
	c1.04,0,1.91,0.125,2.61,0.375c0.699,0.25,1.255,0.605,1.665,1.065c0.409,0.46,0.699,1.01,0.87,1.65
	c0.169,0.64,0.255,1.36,0.255,2.16c0,0.88-0.03,1.765-0.09,2.655c-0.061,0.89-0.096,1.765-0.105,2.625
	c-0.011,0.86,0.015,1.695,0.075,2.505c0.06,0.81,0.21,1.575,0.45,2.295h-3.181l-0.63-2.07h-0.149c-0.4,0.62-0.956,1.155-1.665,1.605
	c-0.711,0.45-1.626,0.675-2.745,0.675c-0.7,0-1.331-0.105-1.891-0.315s-1.04-0.51-1.439-0.9c-0.4-0.39-0.71-0.85-0.931-1.38
	c-0.22-0.53-0.329-1.125-0.329-1.785c0-0.919,0.204-1.695,0.614-2.325c0.41-0.63,1-1.14,1.771-1.53c0.77-0.39,1.689-0.66,2.76-0.81
	c1.069-0.15,2.265-0.195,3.585-0.135c0.14-1.12,0.061-1.925-0.24-2.415c-0.3-0.49-0.97-0.735-2.01-0.735
	c-0.78,0-1.604,0.08-2.475,0.24c-0.87,0.161-1.586,0.371-2.146,0.63L797.145,294.917z M802.095,306.076
	c0.779,0,1.399-0.175,1.859-0.525c0.46-0.35,0.8-0.725,1.021-1.125v-1.95c-0.62-0.06-1.215-0.07-1.785-0.03
	c-0.57,0.041-1.075,0.13-1.515,0.27c-0.44,0.14-0.791,0.34-1.051,0.6c-0.26,0.26-0.39,0.59-0.39,0.99
	c0,0.561,0.165,0.996,0.495,1.305C801.06,305.922,801.514,306.076,802.095,306.076z"/>
<path fill="none" stroke="#000000" d="M820.635,309.046v-8.16c0-1.38-0.131-2.359-0.391-2.94c-0.26-0.58-0.8-0.87-1.62-0.87
	c-0.68,0-1.229,0.186-1.649,0.555c-0.42,0.37-0.74,0.845-0.96,1.425v9.99h-3.9v-15h3.03l0.45,1.98h0.119
	c0.46-0.64,1.045-1.2,1.756-1.68c0.709-0.48,1.624-0.72,2.744-0.72c0.96,0,1.745,0.195,2.355,0.585
	c0.609,0.39,1.085,1.045,1.425,1.965c0.46-0.78,1.05-1.399,1.771-1.86c0.72-0.46,1.59-0.69,2.609-0.69c0.84,0,1.555,0.1,2.146,0.3
	c0.59,0.2,1.069,0.545,1.439,1.035c0.37,0.49,0.646,1.145,0.825,1.965c0.18,0.82,0.271,1.86,0.271,3.12v9h-3.9v-8.43
	c0-1.18-0.125-2.064-0.375-2.655c-0.25-0.59-0.806-0.885-1.665-0.885c-0.7,0-1.255,0.19-1.665,0.57s-0.715,0.9-0.915,1.56v9.84
	H820.635z"/>
<path fill="none" stroke="#000000" d="M848.264,307.756c-0.6,0.48-1.415,0.885-2.445,1.215c-1.03,0.33-2.125,0.495-3.284,0.495
	c-2.421,0-4.19-0.705-5.311-2.115c-1.12-1.41-1.68-3.345-1.68-5.805c0-2.64,0.63-4.62,1.89-5.94s3.03-1.98,5.311-1.98
	c0.76,0,1.5,0.1,2.22,0.3c0.72,0.2,1.359,0.53,1.92,0.99c0.56,0.46,1.01,1.08,1.35,1.86s0.511,1.75,0.511,2.91
	c0,0.42-0.025,0.87-0.075,1.35c-0.051,0.48-0.125,0.98-0.226,1.5h-9c0.061,1.26,0.385,2.21,0.976,2.85
	c0.59,0.641,1.545,0.96,2.865,0.96c0.819,0,1.555-0.125,2.204-0.375c0.65-0.25,1.146-0.505,1.485-0.765L848.264,307.756z
	 M842.684,296.747c-1.02,0-1.775,0.305-2.265,0.915c-0.49,0.61-0.785,1.425-0.885,2.445h5.579c0.08-1.08-0.085-1.91-0.494-2.49
	C844.209,297.037,843.563,296.747,842.684,296.747z"/>
<path fill="none" stroke="#000000" d="M852.374,307.066c0-0.7,0.22-1.255,0.66-1.665c0.439-0.41,1.02-0.615,1.74-0.615
	c0.76,0,1.359,0.205,1.8,0.615c0.439,0.41,0.66,0.965,0.66,1.665c0,0.7-0.221,1.26-0.66,1.68c-0.44,0.42-1.04,0.63-1.8,0.63
	c-0.721,0-1.301-0.21-1.74-0.63C852.594,308.326,852.374,307.767,852.374,307.066z M852.794,288.046h4.02v9.87l-0.779,4.89h-2.46
	l-0.78-4.89V288.046z"/>
</svg>
